<svg xmlns="http://www.w3.org/2000/svg" viewBox="0 0 94.19 42.53"><defs><style>.a{fill:#f3e244;stroke:#1b1b1b;stroke-miterlimit:22.93;stroke-width:0.57px;}.a,.b,.c{fill-rule:evenodd;}.c{fill:#fff;}</style></defs><title>Ресурс 3</title><path class="a" d="M30.86,19.79c-1.47,3.66-2.78,7.08-4.24,10.73-10,.21-13.82,5.06-19.41,10.74l7.54-17.58c2.19,3.44,4,3.75,4.7,2.59,1.15-1.95.77-5.95-.76-8.08,1.53-3.75,2.87-6.82,4.4-10.58C24.4,14,26.65,17.74,30.86,19.79Z"/><path class="b" d="M0,22.76l4.4-11c10-.21,14.94-6.1,20.53-11.78L16.51,19.59c-2.19-3.43-3.86-4.47-4.54-3.31-1.14,1.95-.77,5.87.76,8C11.2,28,9.62,31.83,8.09,35.58,6.78,29.24,4.21,24.81,0,22.76Z"/><path class="c" d="M39.6,4.7H38.1L38,5l.19,0a.27.27,0,0,1,.16.08.17.17,0,0,1,0,.16,1.43,1.43,0,0,1-.14.28l-.48.82-.48.8-.5.82-.24-2.69a.23.23,0,0,1,0-.17A.38.38,0,0,1,36.72,5l.2,0L37,4.7H35.09L35,5a1.31,1.31,0,0,1,.31.07.3.3,0,0,1,.16.15.7.7,0,0,1,.06.25c0,.08,0,.2,0,.36s0,.34.06.55,0,.44.07.67l.06.69c0,.23.05.44.07.64s0,.35,0,.49a1.5,1.5,0,0,1,0,.3.62.62,0,0,1-.07.23,1,1,0,0,1-.27.31.43.43,0,0,1-.28.12.37.37,0,0,1-.2-.07,1,1,0,0,1-.19-.16.2.2,0,0,0-.13-.08.19.19,0,0,0-.14,0,.85.85,0,0,0-.19.19.5.5,0,0,0-.09.24.51.51,0,0,0,0,.25.47.47,0,0,0,.18.16.72.72,0,0,0,.27.05.91.91,0,0,0,.31-.05,1.25,1.25,0,0,0,.34-.2,2.75,2.75,0,0,0,.41-.38,6.87,6.87,0,0,0,.47-.63c.1-.14.21-.31.33-.5L37.05,8l.42-.66.4-.65.36-.57.28-.42a3.28,3.28,0,0,1,.25-.35,1.11,1.11,0,0,1,.2-.22,1,1,0,0,1,.23-.12A1.86,1.86,0,0,1,39.51,5l.09-.27Zm2.29,0-.1.28a1.66,1.66,0,0,1,.31,0c.08,0,.13,0,.15.1a.28.28,0,0,1,0,.21,3.76,3.76,0,0,1-.1.39L41.06,9.19a2.43,2.43,0,0,1-.14.37.69.69,0,0,1-.13.21.43.43,0,0,1-.2.11,1.82,1.82,0,0,1-.31,0l-.1.27h2.23l.09-.27a2.39,2.39,0,0,1-.36,0A.35.35,0,0,1,42,9.77a.32.32,0,0,1,0-.21c0-.09.05-.21.1-.37l.41-1.3.47.15H43a.33.33,0,0,0,.14,0,2.41,2.41,0,0,0,.76-.18,2.1,2.1,0,0,0,.62-.39A1.8,1.8,0,0,0,45,6.91a2,2,0,0,0,.23-.73,1.5,1.5,0,0,0,0-.68,1,1,0,0,0-.3-.46,1.41,1.41,0,0,0-.52-.26,3,3,0,0,0-.7-.08Zm1.3.83c0-.12.07-.22.1-.29a.28.28,0,0,1,.1-.14A.29.29,0,0,1,43.5,5l.15,0a.53.53,0,0,1,.35.12.59.59,0,0,1,.21.34,1.37,1.37,0,0,1,0,.58,2.61,2.61,0,0,1-.16.61,2.11,2.11,0,0,1-.29.51,1.41,1.41,0,0,1-.39.35.81.81,0,0,1-.45.13l-.22,0-.17-.07.64-2Zm8,4.4a1.19,1.19,0,0,1-.27,0,.3.3,0,0,1-.15-.11.48.48,0,0,1-.07-.22c0-.09,0-.21,0-.35,0-.6,0-1.19,0-1.75s0-1.11,0-1.66l0-1.19-.37.1L47.57,9.07l-.29.42a2,2,0,0,1-.23.25.76.76,0,0,1-.23.13,1.06,1.06,0,0,1-.28.06l-.09.27h1.63l.09-.27a.9.9,0,0,1-.35-.09.15.15,0,0,1-.09-.16,1,1,0,0,1,.11-.29L48,9l.18-.31a3.4,3.4,0,0,1,.18-.3h1.32c0,.15,0,.31,0,.48s0,.34,0,.53a.68.68,0,0,1,0,.26.23.23,0,0,1-.14.15.73.73,0,0,1-.31.08l-.1.27h2l.1-.27ZM49.72,8h-1.1L49,7.38l.38-.61.38-.63h0L49.72,8ZM59.29,4.7H55.5L55.41,5l.36,0a.38.38,0,0,1,.17.1.21.21,0,0,1,.05.16,2.32,2.32,0,0,1-.06.27c-.17.54-.35,1-.53,1.48s-.36.84-.54,1.18a9.06,9.06,0,0,1-.51.88c-.12.16-.23.31-.34.43a2.61,2.61,0,0,1-.32.34,3,3,0,0,1-.35.27l0,.14a.71.71,0,0,0,.19.06.88.88,0,0,0,.24,0,.51.51,0,0,0,.29-.1,2.62,2.62,0,0,0,.3-.29,7,7,0,0,0,.46-.67c.15-.26.3-.55.44-.86s.28-.63.42-1,.26-.67.38-1,.23-.68.33-1a1,1,0,0,1,.08-.24.25.25,0,0,1,.09-.13.24.24,0,0,1,.15,0h.74a.22.22,0,0,1,.15,0s0,0,0,.11,0,.13-.06.23L56.36,9.07c0,.18-.11.32-.15.43a1.19,1.19,0,0,1-.15.26.61.61,0,0,1-.21.12,1.82,1.82,0,0,1-.31,0l-.09.27H57.6l.08-.27a2,2,0,0,1-.32,0,.24.24,0,0,1-.14-.12.56.56,0,0,1,0-.26c0-.11.07-.25.12-.43L58.41,5.7a2.37,2.37,0,0,1,.13-.36.55.55,0,0,1,.14-.21.43.43,0,0,1,.2-.11,2.12,2.12,0,0,1,.33,0l.08-.27Zm3.85,1c0-.15.09-.27.13-.36a.64.64,0,0,1,.13-.22.54.54,0,0,1,.2-.1,2,2,0,0,1,.32,0L64,4.7H61.92L61.83,5a1.54,1.54,0,0,1,.3,0,.2.2,0,0,1,.14.11.29.29,0,0,1,0,.21,1.86,1.86,0,0,1-.09.36L61.1,9.15c-.05.16-.1.28-.14.38a.89.89,0,0,1-.14.24.56.56,0,0,1-.2.12,2,2,0,0,1-.32,0l-.09.26H62.1a5.84,5.84,0,0,0,.73,0,3.26,3.26,0,0,0,.65-.17,2.7,2.7,0,0,0,.59-.35,1.89,1.89,0,0,0,.44-.53,1.91,1.91,0,0,0,.24-.72,1.47,1.47,0,0,0,0-.67.84.84,0,0,0-.29-.44A1.14,1.14,0,0,0,63.94,7a2.27,2.27,0,0,0-.65-.08H63l-.23,0,.39-1.27Zm-.5,1.6.15,0H63a.94.94,0,0,1,.45.11.65.65,0,0,1,.27.35,1.67,1.67,0,0,1,0,.65,2.26,2.26,0,0,1-.17.56,1.72,1.72,0,0,1-.31.48,1.49,1.49,0,0,1-.39.33,1,1,0,0,1-.45.12.45.45,0,0,1-.28-.07.29.29,0,0,1-.1-.24,2.1,2.1,0,0,1,.08-.46l.56-1.8Zm8.45,1.42c-.19.24-.38.46-.56.65A2.54,2.54,0,0,1,70,9.8a1,1,0,0,1-.55.17.65.65,0,0,1-.51-.23,1.22,1.22,0,0,1-.27-.64,3.82,3.82,0,0,1,0-1,5.51,5.51,0,0,1,.24-1,4,4,0,0,1,.39-.87,3.63,3.63,0,0,1,.5-.68,2.47,2.47,0,0,1,.55-.45,1.28,1.28,0,0,1,.58-.15.69.69,0,0,1,.47.12.67.67,0,0,1,.27.4,2.2,2.2,0,0,1,.07.73l.27,0c0-.21.09-.44.14-.67s.09-.46.14-.68l-.24-.09-.4-.09a3.93,3.93,0,0,0-.52,0,3.32,3.32,0,0,0-1,.16,3.57,3.57,0,0,0-.91.47,3.5,3.5,0,0,0-.76.73,3.72,3.72,0,0,0-.56,1A4.19,4.19,0,0,0,67.59,8a2.89,2.89,0,0,0,0,1,1.76,1.76,0,0,0,.32.72,1.44,1.44,0,0,0,.59.43,2.07,2.07,0,0,0,.82.15,3,3,0,0,0,.52,0l.43-.08.29-.08c.06-.08.12-.18.19-.29l.2-.33.19-.34c.06-.1.11-.2.16-.3l-.22-.13Zm5.29-3c.05-.16.1-.28.14-.38a.57.57,0,0,1,.15-.23.46.46,0,0,1,.2-.13l.31,0,.09-.27H75.12L75,5a1.92,1.92,0,0,1,.34,0c.08,0,.13.06.15.12a.34.34,0,0,1,0,.23c0,.1-.06.23-.12.39L74.32,9.14a2.8,2.8,0,0,1-.14.39.82.82,0,0,1-.14.23.56.56,0,0,1-.2.12,1.82,1.82,0,0,1-.31,0l-.1.27h2.14l.09-.27a1.8,1.8,0,0,1-.32,0,.23.23,0,0,1-.14-.13.42.42,0,0,1,0-.23,3.46,3.46,0,0,1,.11-.38l.56-1.76.21,0a.39.39,0,0,1,.17.11.65.65,0,0,1,.11.25,2.46,2.46,0,0,1,0,.43v.44c0,.14,0,.26,0,.38s0,.23,0,.33a2.13,2.13,0,0,0,0,.39.57.57,0,0,0,.11.26.42.42,0,0,0,.21.16,1.15,1.15,0,0,0,.36,0h.72l.09-.27a.58.58,0,0,1-.26-.07.38.38,0,0,1-.16-.19,1.29,1.29,0,0,1-.08-.38c0-.16,0-.32,0-.46s0-.28,0-.4a2.07,2.07,0,0,0,0-.29,1.56,1.56,0,0,0-.1-.48A.94.94,0,0,0,77,7.37a1.17,1.17,0,0,0-.28-.17v0L77,7.05a2,2,0,0,0,.3-.26,3.64,3.64,0,0,0,.39-.44l.42-.58a4.26,4.26,0,0,1,.28-.34.66.66,0,0,1,.2-.16.33.33,0,0,1,.2,0h.15a.33.33,0,0,0,.14,0,.71.71,0,0,0,.14-.1.46.46,0,0,0,.07-.16.32.32,0,0,0,0-.17.23.23,0,0,0-.12-.12.41.41,0,0,0-.21,0,.67.67,0,0,0-.29.08,1.22,1.22,0,0,0-.32.26,3.35,3.35,0,0,0-.37.47c-.13.22-.26.4-.36.55l-.28.38-.24.27-.21.2a1.43,1.43,0,0,1-.29.19,1,1,0,0,1-.28.1,1.79,1.79,0,0,1-.34,0l.44-1.36ZM86.8,4.7H85.21l0,.13a.69.69,0,0,1,0,.13l-.1.15L82.1,9.19h0l1.09-3.33c.06-.19.11-.34.16-.46a.91.91,0,0,1,.15-.25.46.46,0,0,1,.2-.13L84,5l.1-.27H82L81.9,5a1.66,1.66,0,0,1,.31,0,.25.25,0,0,1,.15.13.55.55,0,0,1,0,.26c0,.11-.07.27-.13.46L81.21,9c-.06.19-.11.34-.16.46a.89.89,0,0,1-.16.26.56.56,0,0,1-.2.12l-.31,0-.09.27h1.59l0-.13L82,9.9c0-.05.06-.11.11-.18L85,5.62h0L83.91,9.05c-.06.19-.12.34-.16.45a1.19,1.19,0,0,1-.15.26.67.67,0,0,1-.2.12,1.55,1.55,0,0,1-.29,0L83,10.2h2.09l.08-.27a2,2,0,0,1-.32,0,.31.31,0,0,1-.15-.12.56.56,0,0,1,0-.26,4.42,4.42,0,0,1,.13-.45l1-3.25c0-.18.1-.32.14-.43a1.25,1.25,0,0,1,.15-.24A.47.47,0,0,1,86.39,5a2,2,0,0,1,.32,0l.09-.27Zm7.39,0H92.6l0,.13a.38.38,0,0,1-.06.13.6.6,0,0,1-.09.15L89.49,9.19h0l1.09-3.33c.06-.19.11-.34.16-.46a.59.59,0,0,1,.15-.25.46.46,0,0,1,.2-.13l.3,0,.1-.27H89.4L89.29,5a1.66,1.66,0,0,1,.31,0,.23.23,0,0,1,.14.13.38.38,0,0,1,0,.26,4,4,0,0,1-.12.46L88.6,9c-.06.19-.11.34-.16.46a.89.89,0,0,1-.16.26.56.56,0,0,1-.2.12l-.31,0-.09.27h1.59l0-.13.06-.17c0-.05.06-.11.11-.18l2.91-4.1h0L91.3,9.05c-.06.19-.12.34-.16.45a.89.89,0,0,1-.16.26.52.52,0,0,1-.19.12,1.72,1.72,0,0,1-.29,0l-.09.27H92.5l.08-.27a1.8,1.8,0,0,1-.32,0,.31.31,0,0,1-.15-.12.56.56,0,0,1,0-.26,2.78,2.78,0,0,1,.13-.45l1-3.25c0-.18.1-.32.14-.43a1.25,1.25,0,0,1,.15-.24A.42.42,0,0,1,93.78,5a2,2,0,0,1,.32,0l.09-.27ZM93,3.11a2.45,2.45,0,0,1-.26.35,1.08,1.08,0,0,1-.31.23.82.82,0,0,1-.38.09.51.51,0,0,1-.3-.08.33.33,0,0,1-.13-.22,1.07,1.07,0,0,1,0-.35h-.23l-.08.12-.13.2a1.72,1.72,0,0,0-.07.21.7.7,0,0,0,.05.32.58.58,0,0,0,.23.26.71.71,0,0,0,.41.1h0a1.41,1.41,0,0,0,.54-.11,1.45,1.45,0,0,0,.49-.38,2.56,2.56,0,0,0,.4-.66Z"/><path class="c" d="M33.47,13.08l-.08.28.31,0a.29.29,0,0,1,.16.11.39.39,0,0,1,0,.21,3,3,0,0,1-.08.39L33,17.57a3.09,3.09,0,0,1-.1.37,1,1,0,0,1-.12.21.4.4,0,0,1-.19.11,1.82,1.82,0,0,1-.31,0l-.07.27h2.23l.06-.27a2.39,2.39,0,0,1-.36,0,.38.38,0,0,1-.19-.11.34.34,0,0,1,0-.21,2.31,2.31,0,0,1,.06-.37l.31-1.3.48.15H35a2.18,2.18,0,0,0,.73-.18,2.07,2.07,0,0,0,.6-.39,1.88,1.88,0,0,0,.41-.56,2.12,2.12,0,0,0,.18-.73,1.73,1.73,0,0,0-.09-.68,1.07,1.07,0,0,0-.34-.46,1.51,1.51,0,0,0-.54-.26,3.06,3.06,0,0,0-.7-.08Zm1.36.83a2.24,2.24,0,0,1,.08-.29.39.39,0,0,1,.09-.15l.1-.05a.34.34,0,0,1,.15,0,.61.61,0,0,1,.36.11.69.69,0,0,1,.24.35,1.42,1.42,0,0,1,.07.57,2.13,2.13,0,0,1-.12.62,1.73,1.73,0,0,1-.25.51,1.09,1.09,0,0,1-.36.35.76.76,0,0,1-.44.13l-.22,0L34.36,16l.47-2Zm3-.83h3.39c0,.05,0,.13,0,.22s0,.21-.06.33,0,.24-.07.37,0,.25-.06.36h-.25c0-.15,0-.29,0-.42a.92.92,0,0,0-.08-.3.3.3,0,0,0-.1-.14.36.36,0,0,0-.19-.07,1.42,1.42,0,0,0-.33,0h-.42a.5.5,0,0,0-.19,0,.13.13,0,0,0-.09.09.47.47,0,0,0-.06.2l-.42,1.78h.89a.44.44,0,0,0,.22-.09.52.52,0,0,0,.16-.19c0-.09.1-.2.16-.35h.26l-.41,1.73h-.27a2.7,2.7,0,0,0,0-.37.4.4,0,0,0-.07-.21.26.26,0,0,0-.18-.09,1.29,1.29,0,0,0-.36,0h-.51l-.35,1.49c0,.14-.06.26-.07.35a2,2,0,0,0,0,.22.26.26,0,0,0,.06.14.34.34,0,0,0,.2.1,2.46,2.46,0,0,0,.43,0,1.64,1.64,0,0,0,.52-.07.94.94,0,0,0,.37-.22,3.15,3.15,0,0,0,.27-.31c.09-.13.19-.29.29-.46l.25.1a1.78,1.78,0,0,1-.09.23c0,.09-.07.18-.11.29s-.09.2-.13.3l-.12.27c0,.09-.07.15-.09.21H36.58l.07-.27a1.94,1.94,0,0,0,.33,0,.43.43,0,0,0,.2-.11.61.61,0,0,0,.13-.23c0-.1.07-.24.11-.41l.8-3.38a2,2,0,0,0,.07-.4.37.37,0,0,0,0-.22.27.27,0,0,0-.16-.11,2,2,0,0,0-.32-.05l.07-.27Zm4.25,0-.06.26a1.8,1.8,0,0,1,.32.05.24.24,0,0,1,.16.1.39.39,0,0,1,0,.23,3.3,3.3,0,0,1-.08.42l-.8,3.38a3.85,3.85,0,0,1-.1.4.7.7,0,0,1-.13.23.34.34,0,0,1-.18.12l-.3.05-.06.26h2.2l.07-.26a2.37,2.37,0,0,1-.37-.05.34.34,0,0,1-.18-.12.39.39,0,0,1,0-.23,2.83,2.83,0,0,1,.07-.4l.89-3.8a1.24,1.24,0,0,1,.06-.2.14.14,0,0,1,.09-.08.68.68,0,0,1,.19,0h.4a1.17,1.17,0,0,1,.29,0,.39.39,0,0,1,.17.09.3.3,0,0,1,.08.17,1,1,0,0,1,.05.31c0,.12,0,.27,0,.43l.25,0c0-.11,0-.23.07-.37s0-.27.07-.4,0-.25.06-.35a1.51,1.51,0,0,0,0-.22Zm8.65,0-.07.27a1.26,1.26,0,0,0-.32.05.4.4,0,0,0-.19.11.54.54,0,0,0-.13.24,3.49,3.49,0,0,0-.12.43l-.78,3.25-.09.45a.45.45,0,0,0,0,.25.24.24,0,0,0,.16.13,1.65,1.65,0,0,0,.32,0l-.07.27H47.41l.07-.27a1.72,1.72,0,0,0,.29,0,.46.46,0,0,0,.18-.13.72.72,0,0,0,.13-.25,3.46,3.46,0,0,0,.12-.45L49.05,14h0l-2.59,4.1a1,1,0,0,0-.09.18.55.55,0,0,0-.05.17l0,.13H44.68l.06-.27a1.82,1.82,0,0,0,.31,0,.46.46,0,0,0,.2-.13.83.83,0,0,0,.13-.25,4.22,4.22,0,0,0,.12-.46l.77-3.17a3.26,3.26,0,0,0,.09-.46.41.41,0,0,0,0-.26.28.28,0,0,0-.15-.13,1.8,1.8,0,0,0-.32-.05l.09-.27H48l-.08.27-.3.05a.62.62,0,0,0-.19.12,1.25,1.25,0,0,0-.13.26c0,.12-.08.27-.12.46l-.82,3.33h0L49,13.49l.09-.15a.65.65,0,0,0,0-.13l0-.13ZM53.48,13a2.19,2.19,0,0,0-.87.18,2.91,2.91,0,0,0-.77.5,3.67,3.67,0,0,0-.62.77,4.66,4.66,0,0,0-.43,1,5.14,5.14,0,0,0-.19,1.12,2.84,2.84,0,0,0,.08.89,1.85,1.85,0,0,0,.33.69,1.41,1.41,0,0,0,.55.45,1.81,1.81,0,0,0,.76.16,2.09,2.09,0,0,0,.89-.19A2.75,2.75,0,0,0,54,18a3.47,3.47,0,0,0,.6-.76,4.28,4.28,0,0,0,.42-.95,4.61,4.61,0,0,0,.18-1.06,3,3,0,0,0-.07-.92,1.83,1.83,0,0,0-.31-.71,1.33,1.33,0,0,0-.54-.46,1.73,1.73,0,0,0-.78-.17Zm-.07.33a.67.67,0,0,1,.39.13.78.78,0,0,1,.22.35,1.93,1.93,0,0,1,.1.5,2.91,2.91,0,0,1,0,.59,5.49,5.49,0,0,1-.09.78,7.55,7.55,0,0,1-.19.79,4.22,4.22,0,0,1-.27.73,2.94,2.94,0,0,1-.34.61,1.62,1.62,0,0,1-.4.42.76.76,0,0,1-.45.15.56.56,0,0,1-.36-.12.71.71,0,0,1-.23-.34,1.75,1.75,0,0,1-.12-.5,4.21,4.21,0,0,1,0-.62,7.17,7.17,0,0,1,.14-1,6.1,6.1,0,0,1,.29-.94,4,4,0,0,1,.38-.77,2.4,2.4,0,0,1,.46-.52.88.88,0,0,1,.48-.19Zm7.79-.22-.07.27-.33.05a.4.4,0,0,0-.19.11.51.51,0,0,0-.12.22c0,.09-.06.21-.1.37l-.81,3.44a2.9,2.9,0,0,0-.07.38.36.36,0,0,0,0,.22.28.28,0,0,0,.17.12,1.94,1.94,0,0,0,.33,0l-.08.27H57.8l.07-.27a1.82,1.82,0,0,0,.31,0,.43.43,0,0,0,.2-.11.75.75,0,0,0,.12-.22,3.59,3.59,0,0,0,.1-.39L59,15.87H57.23l-.39,1.67c0,.16-.06.28-.07.38a.37.37,0,0,0,0,.22.3.3,0,0,0,.16.12,1.54,1.54,0,0,0,.3,0l-.06.27H55.06l.07-.27a2,2,0,0,0,.32,0,.41.41,0,0,0,.19-.12.51.51,0,0,0,.12-.22,2.84,2.84,0,0,0,.1-.38l.82-3.44a2.54,2.54,0,0,0,.07-.37.34.34,0,0,0,0-.22.27.27,0,0,0-.17-.11,2.08,2.08,0,0,0-.34-.05l.07-.27h2.15l-.07.27a1.55,1.55,0,0,0-.29.05.37.37,0,0,0-.18.11.64.64,0,0,0-.11.22,3.09,3.09,0,0,0-.1.37l-.32,1.36h1.75l.32-1.36a2.54,2.54,0,0,0,.07-.37.36.36,0,0,0,0-.22.24.24,0,0,0-.16-.11,1.54,1.54,0,0,0-.3-.05l.08-.27ZM65,18.31a1.43,1.43,0,0,1-.28,0,.4.4,0,0,1-.16-.12.71.71,0,0,1-.08-.21c0-.09,0-.21,0-.35,0-.61-.08-1.19-.12-1.75s-.08-1.12-.12-1.66L64.13,13l-.36.1-2.44,4.37c-.09.17-.18.31-.25.42a1.1,1.1,0,0,1-.21.25.8.8,0,0,1-.21.13,1.06,1.06,0,0,1-.28.06l-.07.27h1.63l.07-.27a1,1,0,0,1-.36-.09.18.18,0,0,1-.11-.17,1,1,0,0,1,.1-.28l.16-.35.15-.31.15-.3h1.33c0,.15,0,.31,0,.47s0,.35,0,.54a.71.71,0,0,1,0,.26.24.24,0,0,1-.13.15.68.68,0,0,1-.3.08l-.08.27h2l.08-.27Zm-1.6-1.91h-1.1l.33-.64.32-.61.34-.63h0l.1,1.88Zm7.26-3.32H66.88l-.07.27a2.6,2.6,0,0,1,.36,0,.37.37,0,0,1,.19.09.31.31,0,0,1,0,.17,1,1,0,0,1,0,.27c-.13.54-.26,1-.41,1.47a11.26,11.26,0,0,1-.44,1.19,8,8,0,0,1-.44.88l-.3.43a3.45,3.45,0,0,1-.3.34,3.92,3.92,0,0,1-.33.27l0,.14a.71.71,0,0,0,.19.06.88.88,0,0,0,.24,0,.46.46,0,0,0,.28-.1,1.54,1.54,0,0,0,.27-.29,4.56,4.56,0,0,0,.41-.67c.13-.26.26-.55.38-.86s.23-.63.34-1l.3-1c.09-.35.17-.68.24-1a1.84,1.84,0,0,1,.07-.24.32.32,0,0,1,.08-.13.3.3,0,0,1,.15,0h.74a.28.28,0,0,1,.15,0,.11.11,0,0,1,0,.1,1.73,1.73,0,0,1-.05.24l-.87,3.66a3.49,3.49,0,0,1-.12.43.83.83,0,0,1-.13.25.43.43,0,0,1-.19.13,2,2,0,0,1-.32,0l-.06.27h2.15l.06-.27a1.65,1.65,0,0,1-.32,0,.27.27,0,0,1-.16-.13.48.48,0,0,1,0-.25c0-.11,0-.25.09-.43l.8-3.38a1.88,1.88,0,0,1,.1-.35.53.53,0,0,1,.12-.21.39.39,0,0,1,.2-.11,2,2,0,0,1,.32-.05l.06-.27Zm1.89,1-.3,1.27.24,0h.3a2.73,2.73,0,0,1,.66.07,1.52,1.52,0,0,1,.51.25,1.06,1.06,0,0,1,.33.45,1.73,1.73,0,0,1,.09.67,1.9,1.9,0,0,1-.19.72,1.76,1.76,0,0,1-.4.53,2.15,2.15,0,0,1-.56.34,3.17,3.17,0,0,1-.64.18,5.55,5.55,0,0,1-.72,0H70l.07-.26a1.13,1.13,0,0,0,.31-.06.35.35,0,0,0,.19-.12.55.55,0,0,0,.12-.23,3.33,3.33,0,0,0,.11-.39l.81-3.44a2.45,2.45,0,0,0,.07-.36.32.32,0,0,0,0-.21.22.22,0,0,0-.15-.11,1.54,1.54,0,0,0-.3-.05l.06-.27h2.1l-.07.27a2,2,0,0,0-.32.05.39.39,0,0,0-.19.1.68.68,0,0,0-.12.21c0,.1-.06.22-.09.37Zm-.38,1.59-.41,1.81a1.33,1.33,0,0,0,0,.46.34.34,0,0,0,.11.24.48.48,0,0,0,.29.07.88.88,0,0,0,.44-.12,1.42,1.42,0,0,0,.37-.33,1.72,1.72,0,0,0,.26-.48,2.15,2.15,0,0,0,.13-.57,1.54,1.54,0,0,0-.08-.64.7.7,0,0,0-.3-.35.9.9,0,0,0-.46-.11h-.31Zm8.53-2.59H78.57l-.07.27a1.54,1.54,0,0,1,.3.05.2.2,0,0,1,.15.11.36.36,0,0,1,0,.22c0,.09,0,.22-.06.37l-.33,1.36H76.85l.31-1.36c0-.15.07-.28.1-.37a.64.64,0,0,1,.12-.22.34.34,0,0,1,.17-.11,1.72,1.72,0,0,1,.29-.05l.07-.27H75.77l-.07.27a1.94,1.94,0,0,1,.33.05.27.27,0,0,1,.18.11.34.34,0,0,1,.05.22,2.54,2.54,0,0,1-.07.37l-.82,3.44a2.64,2.64,0,0,1-.11.38.51.51,0,0,1-.12.22.37.37,0,0,1-.19.12,1.8,1.8,0,0,1-.32,0l-.07.27h2.15l.06-.27a1.82,1.82,0,0,1-.31,0,.31.31,0,0,1-.15-.12.37.37,0,0,1,0-.22,2.63,2.63,0,0,1,.07-.38l.39-1.67h1.75l-.38,1.67a3.59,3.59,0,0,1-.1.39.75.75,0,0,1-.13.22.4.4,0,0,1-.19.11,2,2,0,0,1-.32,0l-.07.27h2.16l.08-.27a1.8,1.8,0,0,1-.32,0,.28.28,0,0,1-.17-.12.43.43,0,0,1,0-.22,2.9,2.9,0,0,1,.07-.38l.82-3.44a1.73,1.73,0,0,1,.1-.37.64.64,0,0,1,.11-.22.43.43,0,0,1,.2-.11,1.94,1.94,0,0,1,.33-.05l.07-.27Zm1.87,1-.29,1.3.23,0h.28a2.3,2.3,0,0,1,.66.08,1.35,1.35,0,0,1,.51.25,1.12,1.12,0,0,1,.32.45,1.66,1.66,0,0,1,.08.66,2,2,0,0,1-.18.72,1.69,1.69,0,0,1-.39.52,2.06,2.06,0,0,1-.55.35,2.47,2.47,0,0,1-.65.17,4.35,4.35,0,0,1-.74.06H80l.07-.26a1.22,1.22,0,0,0,.32-.06.4.4,0,0,0,.19-.11.62.62,0,0,0,.12-.23,3.09,3.09,0,0,0,.1-.37l.82-3.5c0-.14.05-.26.06-.34a.34.34,0,0,0,0-.21.2.2,0,0,0-.15-.11,1.54,1.54,0,0,0-.3-.05l.07-.26h2.09l-.07.26a1.82,1.82,0,0,0-.31.05.4.4,0,0,0-.19.11.43.43,0,0,0-.12.2c0,.09-.06.2-.1.35Zm4.86-1H85.28l-.07.26a2.12,2.12,0,0,1,.33.05.24.24,0,0,1,.16.11.24.24,0,0,1,0,.2,1.28,1.28,0,0,1-.06.34l-.83,3.54a3.19,3.19,0,0,1-.1.35.57.57,0,0,1-.12.22.52.52,0,0,1-.19.12,1.82,1.82,0,0,1-.31.05l-.07.26h2.16l.06-.26a2,2,0,0,1-.32-.05.34.34,0,0,1-.16-.12.46.46,0,0,1,0-.22,2.14,2.14,0,0,1,.07-.35L86.66,14a3.19,3.19,0,0,1,.09-.34.76.76,0,0,1,.12-.2.4.4,0,0,1,.19-.11,2,2,0,0,1,.32-.05l.06-.26Zm-5.23,2.59-.42,1.82a1.65,1.65,0,0,0-.05.45.37.37,0,0,0,.11.25.41.41,0,0,0,.27.07.8.8,0,0,0,.44-.13,1.28,1.28,0,0,0,.37-.33,1.77,1.77,0,0,0,.26-.49,1.75,1.75,0,0,0,.12-.56,1.54,1.54,0,0,0-.08-.64.75.75,0,0,0-.29-.36.93.93,0,0,0-.44-.11h-.15l-.14,0Zm10.61-2.59-.07.27a1.26,1.26,0,0,0-.32.05.4.4,0,0,0-.19.11.66.66,0,0,0-.13.24,3.74,3.74,0,0,0-.11.43l-.78,3.25a2.93,2.93,0,0,0-.09.45.38.38,0,0,0,0,.25.27.27,0,0,0,.16.13,1.8,1.8,0,0,0,.32,0l-.06.27H89.48l.07-.27a1.72,1.72,0,0,0,.29,0,.46.46,0,0,0,.18-.13.72.72,0,0,0,.13-.25c0-.11.08-.26.13-.45L91.12,14h0l-2.59,4.1a1,1,0,0,0-.09.18,1.09,1.09,0,0,0,0,.17l0,.13H86.75l.07-.27a1.86,1.86,0,0,0,.3,0,.46.46,0,0,0,.2-.13.83.83,0,0,0,.13-.25c0-.12.08-.27.13-.46l.76-3.17a3.26,3.26,0,0,0,.09-.46.41.41,0,0,0,0-.26.25.25,0,0,0-.15-.13,1.82,1.82,0,0,0-.31-.05l.08-.27h2.08l-.08.27a1.86,1.86,0,0,0-.3.05.47.47,0,0,0-.18.12.7.7,0,0,0-.13.26c0,.12-.08.27-.13.46l-.82,3.33h0l2.58-4.08a.6.6,0,0,0,.09-.15.69.69,0,0,0,0-.13l0-.13Zm-1.31-1.59a1.8,1.8,0,0,1-.24.35.8.8,0,0,1-.29.23.75.75,0,0,1-.37.09.54.54,0,0,1-.31-.08.37.37,0,0,1-.14-.22,1,1,0,0,1,0-.35h-.23l-.07.12a1.24,1.24,0,0,0-.1.2.83.83,0,0,0-.06.21.61.61,0,0,0,.08.32.6.6,0,0,0,.24.26.94.94,0,0,0,.43.1h0A1.21,1.21,0,0,0,91,12.6a1.19,1.19,0,0,0,.45-.37,2.05,2.05,0,0,0,.35-.66Z"/><path class="c" d="M34.51,22.91c.1-.28.18-.51.26-.68a1.33,1.33,0,0,1,.27-.41.82.82,0,0,1,.36-.21,2.46,2.46,0,0,1,.56-.1l.16-.47H32.33l-.16.47a3.21,3.21,0,0,1,.6.09.41.41,0,0,1,.26.21.72.72,0,0,1,0,.41c0,.17-.12.4-.22.69l-2.09,5.94a6.64,6.64,0,0,1-.26.68,1.33,1.33,0,0,1-.27.41.93.93,0,0,1-.35.21,3.22,3.22,0,0,1-.55.1l-.19.46h3.75l.18-.46a2.6,2.6,0,0,1-.55-.1.4.4,0,0,1-.25-.22.7.7,0,0,1,0-.41c0-.17.11-.4.2-.67l1.09-3.09a1.08,1.08,0,0,1,.37,0,.55.55,0,0,1,.29.19.9.9,0,0,1,.17.43,3.3,3.3,0,0,1,0,.75c0,.29,0,.56,0,.79s0,.46,0,.66,0,.4,0,.59a4.4,4.4,0,0,0,.05.68,1.25,1.25,0,0,0,.18.47.75.75,0,0,0,.37.27,1.83,1.83,0,0,0,.62.08h1.28l.17-.46a1.39,1.39,0,0,1-.47-.13.68.68,0,0,1-.26-.33,2.45,2.45,0,0,1-.12-.67c0-.29,0-.56-.06-.82s0-.49,0-.7,0-.38,0-.52a2.28,2.28,0,0,0-.17-.82,1.32,1.32,0,0,0-.35-.52,1.57,1.57,0,0,0-.47-.3v0l.4-.23a4.22,4.22,0,0,0,.55-.45,6.45,6.45,0,0,0,.7-.78c.31-.42.57-.75.77-1s.37-.46.5-.6a1.4,1.4,0,0,1,.37-.29.78.78,0,0,1,.35-.08H39a.65.65,0,0,0,.26-.06,1,1,0,0,0,.23-.18.7.7,0,0,0,.14-.27.5.5,0,0,0,0-.3.41.41,0,0,0-.19-.22.78.78,0,0,0-.37-.08,1.2,1.2,0,0,0-.53.14,2.44,2.44,0,0,0-.57.46,5.72,5.72,0,0,0-.66.83c-.26.37-.48.69-.68.95s-.36.49-.51.68a5.12,5.12,0,0,1-.43.47,3.16,3.16,0,0,1-.39.35,2.22,2.22,0,0,1-.51.35,1.78,1.78,0,0,1-.51.16,3.39,3.39,0,0,1-.58.05l.84-2.38Zm10.21-2.06a2.87,2.87,0,0,1,1.33.29,2.08,2.08,0,0,1,.87.82,3,3,0,0,1,.41,1.25,5.55,5.55,0,0,1-.06,1.61,9.17,9.17,0,0,1-.52,1.88,8.57,8.57,0,0,1-.91,1.66,7.09,7.09,0,0,1-1.21,1.34,5.3,5.3,0,0,1-1.44.89,4.29,4.29,0,0,1-1.62.32,2.93,2.93,0,0,1-1.3-.28,2.21,2.21,0,0,1-.88-.78,2.92,2.92,0,0,1-.45-1.22,5.29,5.29,0,0,1,0-1.58,8.94,8.94,0,0,1,.56-1.95,8.81,8.81,0,0,1,.94-1.71,7.23,7.23,0,0,1,1.24-1.34,5.45,5.45,0,0,1,1.44-.89,4.26,4.26,0,0,1,1.57-.31Zm-.18.59a1.51,1.51,0,0,0-.89.33,4.09,4.09,0,0,0-.9.91A7.57,7.57,0,0,0,41.92,24a11.29,11.29,0,0,0-.68,1.66,12.51,12.51,0,0,0-.46,1.85,8.83,8.83,0,0,0-.1,1.09,3.31,3.31,0,0,0,.11.88,1.23,1.23,0,0,0,.35.6.88.88,0,0,0,.62.21,1.45,1.45,0,0,0,.81-.27,3.78,3.78,0,0,0,.79-.73,7.48,7.48,0,0,0,.71-1.08,12.57,12.57,0,0,0,1.1-2.68,10.67,10.67,0,0,0,.31-1.37,6.34,6.34,0,0,0,.11-1,3,3,0,0,0-.08-.88,1.31,1.31,0,0,0-.32-.62,1,1,0,0,0-.65-.22ZM56.87,21H50.19l-.16.47a5.34,5.34,0,0,1,.62.08.6.6,0,0,1,.31.16.38.38,0,0,1,.06.3,1.9,1.9,0,0,1-.12.47c-.32.94-.66,1.81-1,2.59s-.67,1.48-1,2.09A14.64,14.64,0,0,1,48,28.74c-.21.29-.42.55-.61.77a6.62,6.62,0,0,1-.6.59,5.7,5.7,0,0,1-.62.48l-.07.24a1.48,1.48,0,0,0,.32.11,1.85,1.85,0,0,0,.42.06,1,1,0,0,0,.51-.19,2.79,2.79,0,0,0,.54-.51,8.38,8.38,0,0,0,.85-1.18c.28-.46.55-1,.82-1.5s.54-1.11.79-1.71.49-1.18.72-1.79.43-1.18.63-1.76a2.61,2.61,0,0,1,.15-.41.62.62,0,0,1,.17-.23.45.45,0,0,1,.27-.06h1.3a.44.44,0,0,1,.26,0,.17.17,0,0,1,.05.19,1.83,1.83,0,0,1-.12.41L51.5,28.73c-.12.31-.22.57-.3.76a1.59,1.59,0,0,1-.28.44.84.84,0,0,1-.36.22,3.35,3.35,0,0,1-.56.1l-.16.46h3.77l.16-.46a2.72,2.72,0,0,1-.56-.1.37.37,0,0,1-.25-.22.85.85,0,0,1,0-.44c.05-.19.13-.45.24-.76l2-5.94a4.62,4.62,0,0,1,.25-.62,1.25,1.25,0,0,1,.25-.38,1,1,0,0,1,.37-.19,3.39,3.39,0,0,1,.58-.09l.16-.47ZM65,21l-.16.47a3.56,3.56,0,0,0-.58.09.88.88,0,0,0-.36.19,1.26,1.26,0,0,0-.26.38,4.79,4.79,0,0,0-.24.62l-2,5.94c-.11.31-.19.57-.24.76a.82.82,0,0,0,0,.44.33.33,0,0,0,.25.22,2.6,2.6,0,0,0,.55.1l-.16.46H58l.16-.46a3,3,0,0,0,.56-.1.73.73,0,0,0,.36-.22,1.59,1.59,0,0,0,.28-.44c.09-.19.19-.45.3-.76l2.23-6.44a1.83,1.83,0,0,0,.12-.41.19.19,0,0,0,0-.19.45.45,0,0,0-.26,0H60.41a.42.42,0,0,0-.26.06.46.46,0,0,0-.17.23,2.51,2.51,0,0,0-.16.41c-.19.58-.4,1.16-.63,1.76s-.46,1.2-.72,1.79-.51,1.16-.78,1.71-.55,1-.83,1.5A9.26,9.26,0,0,1,56,30.29a3.11,3.11,0,0,1-.54.51A1,1,0,0,1,55,31a1.84,1.84,0,0,1-.41-.06,1.58,1.58,0,0,1-.33-.11l.07-.24a5.82,5.82,0,0,0,.63-.48,6.56,6.56,0,0,0,.59-.59,9,9,0,0,0,.61-.77,14.64,14.64,0,0,0,1-1.54,23,23,0,0,0,1-2.09c.34-.78.68-1.65,1-2.59a3.61,3.61,0,0,0,.12-.47.42.42,0,0,0-.07-.3.56.56,0,0,0-.31-.16,5.12,5.12,0,0,0-.61-.08l.16-.47H65Zm1,0-.18.47a2.6,2.6,0,0,1,.55.1.38.38,0,0,1,.27.19.62.62,0,0,1,0,.39,5,5,0,0,1-.2.69L64.4,28.83a6.66,6.66,0,0,1-.27.73,1.26,1.26,0,0,1-.27.41.87.87,0,0,1-.37.19l-.59.09-.18.46h6.37l.2-.35c.08-.15.17-.31.26-.49s.19-.35.28-.53.18-.35.26-.5.14-.29.2-.4l-.42-.18a9.77,9.77,0,0,1-.61.8,4,4,0,0,1-.53.55A1.72,1.72,0,0,1,68,30a3.21,3.21,0,0,1-.92.12,3.64,3.64,0,0,1-.75-.06.46.46,0,0,1-.34-.18.34.34,0,0,1-.07-.24,1.85,1.85,0,0,1,.06-.39c0-.16.1-.37.18-.61L67.1,26H68a3.42,3.42,0,0,1,.62,0,.44.44,0,0,1,.3.17.56.56,0,0,1,.07.37,3.86,3.86,0,0,1-.09.64h.47l1.06-3H70c-.14.26-.26.46-.36.62a1.15,1.15,0,0,1-.31.34.9.9,0,0,1-.4.14,5.29,5.29,0,0,1-.63,0h-.94l1.07-3.13a1.73,1.73,0,0,1,.15-.35.32.32,0,0,1,.19-.17,1,1,0,0,1,.33,0h.74a2.91,2.91,0,0,1,.57,0,.63.63,0,0,1,.32.12.48.48,0,0,1,.15.25,1.31,1.31,0,0,1,.08.53,5.25,5.25,0,0,1-.06.75l.45,0q.08-.3.18-.63l.18-.65c.06-.22.12-.41.17-.58s.08-.3.11-.39Zm14.83,0-.16.49a2.8,2.8,0,0,0-.59.08.85.85,0,0,0-.38.22,1.38,1.38,0,0,0-.27.44c-.09.2-.18.46-.29.78L77,29.43a2.18,2.18,0,0,0-.12.45.18.18,0,0,0,.07.19.51.51,0,0,0,.25,0H78l-1.49,3.18H76l.36-1.9a1.43,1.43,0,0,0,0-.41.23.23,0,0,0-.09-.21.4.4,0,0,0-.25-.06H71.93a1.31,1.31,0,0,0-.43.06.8.8,0,0,0-.32.22,3,3,0,0,0-.34.46l-1.16,1.84h-.46l1.07-3.18h.6a.68.68,0,0,0,.29-.06.86.86,0,0,0,.27-.27,10,10,0,0,0,.63-1c.23-.4.46-.86.71-1.36s.48-1,.73-1.59.47-1.12.69-1.68.41-1.11.58-1.63a2.26,2.26,0,0,0,.12-.49.29.29,0,0,0-.11-.27.87.87,0,0,0-.4-.14l-.54-.09L74,21Zm-5.59,8.3,2.43-7a2.74,2.74,0,0,0,.13-.48c0-.11,0-.19,0-.22a.5.5,0,0,0-.28-.05H76.22a.75.75,0,0,0-.29,0,.31.31,0,0,0-.17.17,2.15,2.15,0,0,0-.16.38c-.14.41-.3.85-.48,1.34s-.37,1-.58,1.53-.44,1.07-.67,1.61-.49,1.08-.74,1.6-.52,1-.8,1.5c-.07.11-.1.19-.08.25s.1.08.23.08h1.9a1.12,1.12,0,0,0,.4-.06.55.55,0,0,0,.25-.23,2,2,0,0,0,.22-.5ZM87.5,23c.11-.3.2-.54.29-.73a1.38,1.38,0,0,1,.27-.42.72.72,0,0,1,.36-.21,2.56,2.56,0,0,1,.57-.1l.16-.5H85.38l-.16.5a2.36,2.36,0,0,1,.58.1.34.34,0,0,1,.25.21.74.74,0,0,1,0,.42c0,.19-.12.43-.23.73L85,25.28a3.67,3.67,0,0,1-.51-.05,1.07,1.07,0,0,1-.4-.15,1,1,0,0,1-.3-.36,1.67,1.67,0,0,1-.18-.52,5.72,5.72,0,0,1-.11-.76c0-.31-.06-.69-.09-1.13a2.27,2.27,0,0,0-.26-1.12.74.74,0,0,0-.67-.34,1.13,1.13,0,0,0-.47.09.8.8,0,0,0-.33.22.62.62,0,0,0-.16.28.5.5,0,0,0,.08.37.34.34,0,0,0,.3.15h.27a.61.61,0,0,1,.32.07.48.48,0,0,1,.21.26,2.64,2.64,0,0,1,.13.59c0,.27.08.61.12,1a4.7,4.7,0,0,0,.14.77,1.82,1.82,0,0,0,.21.46.8.8,0,0,0,.21.23l0,.05a3.48,3.48,0,0,0-1.08.49,4.91,4.91,0,0,0-1,.95c-.13.17-.28.36-.44.6l-.53.78c-.18.29-.39.58-.59.88a4.49,4.49,0,0,1-.53.68,1.37,1.37,0,0,1-.44.33,1.56,1.56,0,0,1-.48.14l-.17.43h1.44a1.81,1.81,0,0,0,.76-.15,1.73,1.73,0,0,0,.6-.46,4.66,4.66,0,0,0,.55-.77c.12-.19.24-.41.38-.65l.43-.75.49-.8a5.73,5.73,0,0,1,.55-.73,2.39,2.39,0,0,1,.48-.41,1.56,1.56,0,0,1,.46-.18,2.42,2.42,0,0,1,.47,0l-1,3a6.25,6.25,0,0,1-.29.72,1.59,1.59,0,0,1-.28.44,1,1,0,0,1-.37.23,2.83,2.83,0,0,1-.52.1l-.19.46h3.74l.19-.46a2.72,2.72,0,0,1-.56-.1.37.37,0,0,1-.24-.23.73.73,0,0,1,0-.44,5.35,5.35,0,0,1,.22-.72l1-3a1.56,1.56,0,0,1,.39,0,.56.56,0,0,1,.31.19.9.9,0,0,1,.19.43,3.17,3.17,0,0,1,0,.74c0,.29,0,.56,0,.79s0,.46,0,.66v.59a4.4,4.4,0,0,0,0,.68,1.24,1.24,0,0,0,.17.47.72.72,0,0,0,.36.27,1.67,1.67,0,0,0,.6.08h1.32l.14-.43a1.43,1.43,0,0,1-.5-.14.57.57,0,0,1-.26-.34,2.59,2.59,0,0,1-.11-.68c0-.29,0-.57,0-.83s0-.51,0-.72,0-.39,0-.53a2.33,2.33,0,0,0-.17-.82,1.49,1.49,0,0,0-.35-.51,1.67,1.67,0,0,0-.48-.28v-.05c.11-.05.25-.13.42-.23a3.76,3.76,0,0,0,.54-.45,6.09,6.09,0,0,0,.66-.76c.31-.42.57-.75.78-1a6.23,6.23,0,0,1,.52-.6,1.28,1.28,0,0,1,.38-.29.86.86,0,0,1,.36-.08h.27a.54.54,0,0,0,.26-.07.66.66,0,0,0,.23-.18.59.59,0,0,0,.14-.27A.49.49,0,0,0,92.6,21a.64.64,0,0,0-.5-.17,1.22,1.22,0,0,0-.56.14,2.26,2.26,0,0,0-.59.46,6.64,6.64,0,0,0-.67.84c-.25.37-.48.69-.67.95s-.35.48-.5.66-.28.34-.4.47l-.38.35a3.27,3.27,0,0,1-.52.34,2.24,2.24,0,0,1-.5.16,5.22,5.22,0,0,1-.62.06Z"/></svg>